<svg id="SvgjsSvg1344" width="1742" height="440.5" xmlns="http://www.w3.org/2000/svg" version="1.1" xmlns:xlink="http://www.w3.org/1999/xlink" xmlns:svgjs="http://svgjs.com/svgjs"><defs id="SvgjsDefs1345"><pattern patternUnits="userSpaceOnUse" id="pattern_mark_0" width="300" height="300"><text x="150" y="100" fill="rgba(229,229,229,0.8)" font-size="18" transform="rotate(-45, 150, 150)" style="dominant-baseline: middle; text-anchor: middle;"></text></pattern><pattern patternUnits="userSpaceOnUse" id="pattern_mark_1" width="300" height="300"><text x="150" y="200" fill="rgba(229,229,229,0.8)" font-size="18" transform="rotate(-45, 150, 150)" style="dominant-baseline: middle; text-anchor: middle;"></text></pattern><pattern id="SvgjsPattern1351" x="0" y="0" width="98" height="100" patternUnits="userSpaceOnUse"><image id="SvgjsImage1352" xlink:href="https://iconsapi.com/5ee27a73e4b0b788a934c9b2.svg" width="98" height="100" preserveAspectRatio="none" crossOrigin="anonymous" x="0" y="0"></image></pattern><marker id="SvgjsMarker1475" markerWidth="13" markerHeight="9" refX="9.5" refY="4.5" viewBox="0 0 13 9" orient="auto" markerUnits="userSpaceOnUse" stroke-dasharray="0,0"><path id="SvgjsPath1476" d="M0,0 L13,4.5 L0,9 L0,0" fill="#323232" stroke="#323232" stroke-width="1"></path></marker><marker id="SvgjsMarker1483" markerWidth="13" markerHeight="9" refX="9.5" refY="4.5" viewBox="0 0 13 9" orient="auto" markerUnits="userSpaceOnUse" stroke-dasharray="0,0"><path id="SvgjsPath1484" d="M0,0 L13,4.5 L0,9 L0,0" fill="#323232" stroke="#323232" stroke-width="1"></path></marker><marker id="SvgjsMarker1487" markerWidth="13" markerHeight="9" refX="9.5" refY="4.5" viewBox="0 0 13 9" orient="auto" markerUnits="userSpaceOnUse" stroke-dasharray="0,0"><path id="SvgjsPath1488" d="M0,0 L13,4.5 L0,9 L0,0" fill="#323232" stroke="#323232" stroke-width="1"></path></marker><marker id="SvgjsMarker1491" markerWidth="13" markerHeight="9" refX="9.5" refY="4.5" viewBox="0 0 13 9" orient="auto" markerUnits="userSpaceOnUse" stroke-dasharray="0,0"><path id="SvgjsPath1492" d="M0,0 L13,4.5 L0,9 L0,0" fill="#323232" stroke="#323232" stroke-width="1"></path></marker><marker id="SvgjsMarker1495" markerWidth="13" markerHeight="9" refX="9.5" refY="4.5" viewBox="0 0 13 9" orient="auto" markerUnits="userSpaceOnUse" stroke-dasharray="0,0"><path id="SvgjsPath1496" d="M0,0 L13,4.5 L0,9 L0,0" fill="#323232" stroke="#323232" stroke-width="1"></path></marker><marker id="SvgjsMarker1499" markerWidth="13" markerHeight="9" refX="9.5" refY="4.5" viewBox="0 0 13 9" orient="auto" markerUnits="userSpaceOnUse" stroke-dasharray="0,0"><path id="SvgjsPath1500" d="M0,0 L13,4.5 L0,9 L0,0" fill="#323232" stroke="#323232" stroke-width="1"></path></marker><marker id="SvgjsMarker1503" markerWidth="13" markerHeight="9" refX="9.5" refY="4.5" viewBox="0 0 13 9" orient="auto" markerUnits="userSpaceOnUse" stroke-dasharray="0,0"><path id="SvgjsPath1504" d="M0,0 L13,4.5 L0,9 L0,0" fill="#323232" stroke="#323232" stroke-width="1"></path></marker><marker id="SvgjsMarker1507" markerWidth="13" markerHeight="9" refX="9.5" refY="4.5" viewBox="0 0 13 9" orient="auto" markerUnits="userSpaceOnUse" stroke-dasharray="0,0"><path id="SvgjsPath1508" d="M0,0 L13,4.5 L0,9 L0,0" fill="#323232" stroke="#323232" stroke-width="1"></path></marker><marker id="SvgjsMarker1511" markerWidth="13" markerHeight="9" refX="9.5" refY="4.5" viewBox="0 0 13 9" orient="auto" markerUnits="userSpaceOnUse" stroke-dasharray="0,0"><path id="SvgjsPath1512" d="M0,0 L13,4.5 L0,9 L0,0" fill="#323232" stroke="#323232" stroke-width="1"></path></marker><marker id="SvgjsMarker1515" markerWidth="13" markerHeight="9" refX="9.5" refY="4.5" viewBox="0 0 13 9" orient="auto" markerUnits="userSpaceOnUse" stroke-dasharray="0,0"><path id="SvgjsPath1516" d="M0,0 L13,4.5 L0,9 L0,0" fill="#323232" stroke="#323232" stroke-width="1"></path></marker><marker id="SvgjsMarker1519" markerWidth="13" markerHeight="9" refX="9.5" refY="4.5" viewBox="0 0 13 9" orient="auto" markerUnits="userSpaceOnUse" stroke-dasharray="0,0"><path id="SvgjsPath1520" d="M0,0 L13,4.5 L0,9 L0,0" fill="#323232" stroke="#323232" stroke-width="1"></path></marker><marker id="SvgjsMarker1523" markerWidth="13" markerHeight="9" refX="9.5" refY="4.5" viewBox="0 0 13 9" orient="auto" markerUnits="userSpaceOnUse" stroke-dasharray="0,0"><path id="SvgjsPath1524" d="M0,0 L13,4.5 L0,9 L0,0" fill="#323232" stroke="#323232" stroke-width="1"></path></marker></defs><rect id="svgbackgroundid" width="1742" height="440.5" fill="transparent"></rect><rect id="SvgjsRect1347" width="1742" height="440.5" fill="url(#pattern_mark_0)"></rect><rect id="SvgjsRect1348" width="1742" height="440.5" fill="url(#pattern_mark_1)"></rect><g id="SvgjsG1349" transform="translate(25,203)"><path id="SvgjsPath1350" d="M 0 0L 98 0L 98 100L 0 100Z" stroke="none" fill="url(#SvgjsPattern1351)"></path></g><g id="SvgjsG1353" transform="translate(254.5,68.5)"><path id="SvgjsPath1354" d="M 0 4Q 0 0 4 0L 1037 0Q 1041 0 1041 4L 1041 343Q 1041 347 1037 347L 4 347Q 0 347 0 343Z" stroke="rgba(33,41,48,1)" stroke-width="1.5" fill-opacity="1" fill="#ffffff"></path><g id="SvgjsG1355"><text id="SvgjsText1356" font-family="微软雅黑" text-anchor="middle" font-size="13px" width="1021px" fill="#323232" font-weight="400" align="top" lineHeight="125%" anchor="middle" family="微软雅黑" size="13px" weight="400" font-style="" opacity="1" y="-2.625" transform="rotate(0)"><tspan id="SvgjsTspan1357" dy="16.25" x="520.5"><tspan id="SvgjsTspan1358" style="">Connector</tspan></tspan></text></g></g><g id="SvgjsG1359" transform="translate(283.5,130)"><path id="SvgjsPath1360" d="M 0 0L 983 0L 983 232L 0 232Z" stroke="rgba(33,41,48,1)" stroke-width="1.5" fill-opacity="1" fill="#ffffff"></path><g id="SvgjsG1361"><text id="SvgjsText1362" font-family="微软雅黑" text-anchor="middle" font-size="13px" width="963px" fill="#323232" font-weight="400" align="top" lineHeight="125%" anchor="middle" family="微软雅黑" size="13px" weight="400" font-style="" opacity="1" y="-2.625" transform="rotate(0)"><tspan id="SvgjsTspan1363" dy="16.25" x="491.5"><tspan id="SvgjsTspan1364" style="">ProtocolHandler</tspan></tspan></text></g></g><g id="SvgjsG1365" transform="translate(301,165)"><path id="SvgjsPath1366" d="M 0 0L 674 0L 674 167L 0 167Z" stroke="rgba(33,41,48,1)" stroke-width="1.5" fill-opacity="1" fill="#ffffff"></path><g id="SvgjsG1367"><text id="SvgjsText1368" font-family="微软雅黑" text-anchor="middle" font-size="13px" width="654px" fill="#323232" font-weight="400" align="top" lineHeight="125%" anchor="middle" family="微软雅黑" size="13px" weight="400" font-style="" opacity="1" y="-2.625" transform="rotate(0)"><tspan id="SvgjsTspan1369" dy="16.25" x="337"><tspan id="SvgjsTspan1370" style="">EndPoint</tspan></tspan></text></g></g><g id="SvgjsG1371" transform="translate(326,226)"><path id="SvgjsPath1372" d="M 0 0L 98 0L 98 54L 0 54Z" stroke="rgba(33,41,48,1)" stroke-width="1.5" fill-opacity="1" fill="#ffffff"></path><g id="SvgjsG1373"><text id="SvgjsText1374" font-family="微软雅黑" text-anchor="middle" font-size="13px" width="78px" fill="#323232" font-weight="400" align="middle" lineHeight="125%" anchor="middle" family="微软雅黑" size="13px" weight="400" font-style="" opacity="1" y="16.375" transform="rotate(0)"><tspan id="SvgjsTspan1375" dy="16.25" x="49"><tspan id="SvgjsTspan1376" style="">Acceptor</tspan></tspan></text></g></g><g id="SvgjsG1377" transform="translate(463,226)"><path id="SvgjsPath1378" d="M 0 0L 98 0L 98 54L 0 54Z" stroke="rgba(33,41,48,1)" stroke-width="1.5" fill-opacity="1" fill="#ffffff"></path><g id="SvgjsG1379"><text id="SvgjsText1380" font-family="微软雅黑" text-anchor="middle" font-size="13px" width="78px" fill="#323232" font-weight="400" align="middle" lineHeight="125%" anchor="middle" family="微软雅黑" size="13px" weight="400" font-style="" opacity="1" y="16.375" transform="rotate(0)"><tspan id="SvgjsTspan1381" dy="16.25" x="49"><tspan id="SvgjsTspan1382" style="">Poller</tspan></tspan></text></g></g><g id="SvgjsG1383" transform="translate(600,226)"><path id="SvgjsPath1384" d="M 0 0L 140 0L 140 54L 0 54Z" stroke="rgba(33,41,48,1)" stroke-width="1.5" fill-opacity="1" fill="#ffffff"></path><g id="SvgjsG1385"><text id="SvgjsText1386" font-family="微软雅黑" text-anchor="middle" font-size="13px" width="120px" fill="#323232" font-weight="400" align="middle" lineHeight="125%" anchor="middle" family="微软雅黑" size="13px" weight="400" font-style="" opacity="1" y="16.375" transform="rotate(0)"><tspan id="SvgjsTspan1387" dy="16.25" x="70"><tspan id="SvgjsTspan1388" style="">SocketProcessor</tspan></tspan></text></g></g><g id="SvgjsG1389" transform="translate(781,226)"><path id="SvgjsPath1390" d="M 0 0L 150 0L 150 54L 0 54Z" stroke="rgba(33,41,48,1)" stroke-width="1.5" fill-opacity="1" fill="#ffffff"></path><g id="SvgjsG1391"><text id="SvgjsText1392" font-family="微软雅黑" text-anchor="middle" font-size="13px" width="130px" fill="#323232" font-weight="400" align="middle" lineHeight="125%" anchor="middle" family="微软雅黑" size="13px" weight="400" font-style="" opacity="1" y="16.375" transform="rotate(0)"><tspan id="SvgjsTspan1393" dy="16.25" x="75"><tspan id="SvgjsTspan1394" style="">ConnectionHandler</tspan></tspan></text></g></g><g id="SvgjsG1395" transform="translate(1038,162.5)"><path id="SvgjsPath1396" d="M 0 0L 81 0L 81 167L 0 167Z" stroke="rgba(33,41,48,1)" stroke-width="1.5" fill-opacity="1" fill="#ffffff"></path><g id="SvgjsG1397"><text id="SvgjsText1398" font-family="微软雅黑" text-anchor="middle" font-size="13px" width="61px" fill="#323232" font-weight="400" align="middle" lineHeight="125%" anchor="middle" family="微软雅黑" size="13px" weight="400" font-style="" opacity="1" y="23.875" transform="rotate(0)"><tspan id="SvgjsTspan1399" dy="16.25" x="40.5"><tspan id="SvgjsTspan1400" style="">Processor</tspan></tspan><tspan id="SvgjsTspan1401" dy="16.25" x="40.5"><tspan id="SvgjsTspan1402" style=""> </tspan></tspan><tspan id="SvgjsTspan1403" dy="16.25" x="40.5"><tspan id="SvgjsTspan1404" style="">根据应用</tspan></tspan><tspan id="SvgjsTspan1405" dy="16.25" x="40.5"><tspan id="SvgjsTspan1406" style="">层协议解</tspan></tspan><tspan id="SvgjsTspan1407" dy="16.25" x="40.5"><tspan id="SvgjsTspan1408" style="">析请求，</tspan></tspan><tspan id="SvgjsTspan1409" dy="16.25" x="40.5"><tspan id="SvgjsTspan1410" style="">比如</tspan></tspan><tspan id="SvgjsTspan1411" dy="16.25" x="40.5"><tspan id="SvgjsTspan1412" style="">HTTP/1.1</tspan></tspan></text></g></g><g id="SvgjsG1413" transform="translate(1165,163)"><path id="SvgjsPath1414" d="M 0 0L 78 0L 78 167L 0 167Z" stroke="rgba(33,41,48,1)" stroke-width="1.5" fill-opacity="1" fill="#ffffff"></path><g id="SvgjsG1415"><text id="SvgjsText1416" font-family="微软雅黑" text-anchor="middle" font-size="13px" width="58px" fill="#323232" font-weight="400" align="middle" lineHeight="125%" anchor="middle" family="微软雅黑" size="13px" weight="400" font-style="" opacity="1" y="23.875" transform="rotate(0)"><tspan id="SvgjsTspan1417" dy="16.25" x="39"><tspan id="SvgjsTspan1418" style="">Adapter</tspan></tspan><tspan id="SvgjsTspan1419" dy="16.25" x="39"><tspan id="SvgjsTspan1420" style=""> </tspan></tspan><tspan id="SvgjsTspan1421" dy="16.25" x="39"><tspan id="SvgjsTspan1422" style="">封装</tspan></tspan><tspan id="SvgjsTspan1423" dy="16.25" x="39"><tspan id="SvgjsTspan1424" style="">ServletReq</tspan></tspan><tspan id="SvgjsTspan1425" dy="16.25" x="39"><tspan id="SvgjsTspan1426" style="">uest 和</tspan></tspan><tspan id="SvgjsTspan1427" dy="16.25" x="39"><tspan id="SvgjsTspan1428" style="">ServletRes</tspan></tspan><tspan id="SvgjsTspan1429" dy="16.25" x="39"><tspan id="SvgjsTspan1430" style="">ponse</tspan></tspan></text></g></g><g id="SvgjsG1431" transform="translate(1344,68.5)"><path id="SvgjsPath1432" d="M 0 4Q 0 0 4 0L 369 0Q 373 0 373 4L 373 343Q 373 347 369 347L 4 347Q 0 347 0 343Z" stroke="rgba(33,41,48,1)" stroke-width="1.5" fill-opacity="1" fill="#ffffff"></path><g id="SvgjsG1433"><text id="SvgjsText1434" font-family="微软雅黑" text-anchor="middle" font-size="13px" width="353px" fill="#323232" font-weight="400" align="top" lineHeight="125%" anchor="middle" family="微软雅黑" size="13px" weight="400" font-style="" opacity="1" y="-2.625" transform="rotate(0)"><tspan id="SvgjsTspan1435" dy="16.25" x="186.5"><tspan id="SvgjsTspan1436" style="">容器</tspan></tspan></text></g></g><g id="SvgjsG1437" transform="translate(1354,98.5)"><path id="SvgjsPath1438" d="M 0 0L 336 0L 336 32L 0 32Z" stroke="rgba(33,41,48,1)" stroke-width="1.5" fill-opacity="1" fill="#ffffff"></path><g id="SvgjsG1439"><text id="SvgjsText1440" font-family="微软雅黑" text-anchor="middle" font-size="13px" width="316px" fill="#323232" font-weight="400" align="middle" lineHeight="125%" anchor="middle" family="微软雅黑" size="13px" weight="400" font-style="" opacity="1" y="5.375" transform="rotate(0)"><tspan id="SvgjsTspan1441" dy="16.25" x="168"><tspan id="SvgjsTspan1442" style="">StandardEngineValve</tspan></tspan></text></g></g><g id="SvgjsG1443" transform="translate(1354,148.5)"><path id="SvgjsPath1444" d="M 0 0L 336 0L 336 32L 0 32Z" stroke="rgba(33,41,48,1)" stroke-width="1.5" fill-opacity="1" fill="#ffffff"></path><g id="SvgjsG1445"><text id="SvgjsText1446" font-family="微软雅黑" text-anchor="middle" font-size="13px" width="316px" fill="#323232" font-weight="400" align="middle" lineHeight="125%" anchor="middle" family="微软雅黑" size="13px" weight="400" font-style="" opacity="1" y="5.375" transform="rotate(0)"><tspan id="SvgjsTspan1447" dy="16.25" x="168"><tspan id="SvgjsTspan1448" style="">StandardHostValve</tspan></tspan></text></g></g><g id="SvgjsG1449" transform="translate(1354,198.5)"><path id="SvgjsPath1450" d="M 0 0L 336 0L 336 32L 0 32Z" stroke="rgba(33,41,48,1)" stroke-width="1.5" fill-opacity="1" fill="#ffffff"></path><g id="SvgjsG1451"><text id="SvgjsText1452" font-family="微软雅黑" text-anchor="middle" font-size="13px" width="316px" fill="#323232" font-weight="400" align="middle" lineHeight="125%" anchor="middle" family="微软雅黑" size="13px" weight="400" font-style="" opacity="1" y="5.375" transform="rotate(0)"><tspan id="SvgjsTspan1453" dy="16.25" x="168"><tspan id="SvgjsTspan1454" style="">StandardContextValve</tspan></tspan></text></g></g><g id="SvgjsG1455" transform="translate(1354,248.5)"><path id="SvgjsPath1456" d="M 0 0L 336 0L 336 32L 0 32Z" stroke="rgba(33,41,48,1)" stroke-width="1.5" fill-opacity="1" fill="#ffffff"></path><g id="SvgjsG1457"><text id="SvgjsText1458" font-family="微软雅黑" text-anchor="middle" font-size="13px" width="316px" fill="#323232" font-weight="400" align="middle" lineHeight="125%" anchor="middle" family="微软雅黑" size="13px" weight="400" font-style="" opacity="1" y="5.375" transform="rotate(0)"><tspan id="SvgjsTspan1459" dy="16.25" x="168"><tspan id="SvgjsTspan1460" style="">StandardWrapperValve</tspan></tspan></text></g></g><g id="SvgjsG1461" transform="translate(1354,297.5)"><path id="SvgjsPath1462" d="M 0 0L 336 0L 336 32L 0 32Z" stroke="rgba(33,41,48,1)" stroke-width="1.5" fill-opacity="1" fill="#ffffff"></path><g id="SvgjsG1463"><text id="SvgjsText1464" font-family="微软雅黑" text-anchor="middle" font-size="13px" width="316px" fill="#323232" font-weight="400" align="middle" lineHeight="125%" anchor="middle" family="微软雅黑" size="13px" weight="400" font-style="" opacity="1" y="5.375" transform="rotate(0)"><tspan id="SvgjsTspan1465" dy="16.25" x="168"><tspan id="SvgjsTspan1466" style="">ApplicationFilterChain</tspan></tspan></text></g></g><g id="SvgjsG1467" transform="translate(1354,348.5)"><path id="SvgjsPath1468" d="M 0 0L 336 0L 336 32L 0 32Z" stroke="rgba(33,41,48,1)" stroke-width="1.5" fill-opacity="1" fill="#ffffff"></path><g id="SvgjsG1469"><text id="SvgjsText1470" font-family="微软雅黑" text-anchor="middle" font-size="13px" width="316px" fill="#323232" font-weight="400" align="middle" lineHeight="125%" anchor="middle" family="微软雅黑" size="13px" weight="400" font-style="" opacity="1" y="5.375" transform="rotate(0)"><tspan id="SvgjsTspan1471" dy="16.25" x="168"><tspan id="SvgjsTspan1472" style="">servlet.service(request, response)</tspan></tspan></text></g></g><g id="SvgjsG1473"><path id="SvgjsPath1474" d="M123.75 253L225.5 253L225.5 253L323.29999999999995 253" stroke="#323232" stroke-width="1.5" fill="none" marker-end="url(#SvgjsMarker1475)"></path><rect id="SvgjsRect1477" width="26" height="16" x="191.16567164179102" y="245" fill="#ffffff"></rect><text id="SvgjsText1478" font-family="微软雅黑" text-anchor="middle" font-size="13px" width="26px" fill="#323232" font-weight="400" align="top" lineHeight="16px" anchor="middle" family="微软雅黑" size="13px" weight="400" font-style="" opacity="1" y="242.375" transform="rotate(0)"><tspan id="SvgjsTspan1479" dy="16.25" x="204.16567164179102"><tspan id="SvgjsTspan1480" style="">请求</tspan></tspan></text></g><g id="SvgjsG1481"><path id="SvgjsPath1482" d="M424.75 253L442.5 253L442.5 253L460.29999999999995 253" stroke="#323232" stroke-width="1.5" fill="none" marker-end="url(#SvgjsMarker1483)"></path></g><g id="SvgjsG1485"><path id="SvgjsPath1486" d="M561.75 253L579.5 253L579.5 253L597.3 253" stroke="#323232" stroke-width="1.5" fill="none" marker-end="url(#SvgjsMarker1487)"></path></g><g id="SvgjsG1489"><path id="SvgjsPath1490" d="M740.75 253L760.5 253L760.5 253L778.3 253" stroke="#323232" stroke-width="1.5" fill="none" marker-end="url(#SvgjsMarker1491)"></path></g><g id="SvgjsG1493"><path id="SvgjsPath1494" d="M931.75 255.22809757548714L1035.3 255.22809757548714" stroke="#323232" stroke-width="1.5" fill="none" marker-end="url(#SvgjsMarker1495)"></path></g><g id="SvgjsG1497"><path id="SvgjsPath1498" d="M1119.75 248.5L1162.3 248.5" stroke="#323232" stroke-width="1.5" fill="none" marker-end="url(#SvgjsMarker1499)"></path></g><g id="SvgjsG1501"><path id="SvgjsPath1502" d="M1243.75 248.5L1320 248.5L1320 25L1522 25L1522 95.80000000000001" stroke="#323232" stroke-width="1.5" fill="none" marker-end="url(#SvgjsMarker1503)"></path></g><g id="SvgjsG1505"><path id="SvgjsPath1506" d="M1522 131.25L1522 139.5L1522 139.5L1522 145.8" stroke="#323232" stroke-width="1.5" fill="none" marker-end="url(#SvgjsMarker1507)"></path></g><g id="SvgjsG1509"><path id="SvgjsPath1510" d="M1522 181.25L1522 189.5L1522 189.5L1522 195.8" stroke="#323232" stroke-width="1.5" fill="none" marker-end="url(#SvgjsMarker1511)"></path></g><g id="SvgjsG1513"><path id="SvgjsPath1514" d="M1522 231.25L1522 239.5L1522 239.5L1522 245.8" stroke="#323232" stroke-width="1.5" fill="none" marker-end="url(#SvgjsMarker1515)"></path></g><g id="SvgjsG1517"><path id="SvgjsPath1518" d="M1522 281.25L1522 289L1522 289L1522 294.8" stroke="#323232" stroke-width="1.5" fill="none" marker-end="url(#SvgjsMarker1519)"></path></g><g id="SvgjsG1521"><path id="SvgjsPath1522" d="M1522 330.25L1522 339L1522 339L1522 345.8" stroke="#323232" stroke-width="1.5" fill="none" marker-end="url(#SvgjsMarker1523)"></path></g></svg>